<mxfile host="65bd71144e">
    <diagram id="Ogp230cFNuVrEqbx9-aM" name="Visão-Geral-Domínio">
        <mxGraphModel dx="1533" dy="657" grid="1" gridSize="10" guides="1" tooltips="1" connect="1" arrows="1" fold="1" page="1" pageScale="1" pageWidth="850" pageHeight="1100" math="0" shadow="0">
            <root>
                <mxCell id="0"/>
                <mxCell id="1" parent="0"/>
                <mxCell id="2" value="Feedtrack GE" style="shape=umlFrame;whiteSpace=wrap;html=1;pointerEvents=0;recursiveResize=0;container=1;collapsible=0;width=160;" parent="1" vertex="1">
                    <mxGeometry x="350" y="200" width="700" height="1220" as="geometry"/>
                </mxCell>
                <mxCell id="15" value="" style="shape=ellipse;container=1;horizontal=1;horizontalStack=0;resizeParent=1;resizeParentMax=0;resizeLast=0;html=1;dashed=0;collapsible=0;" parent="2" vertex="1">
                    <mxGeometry x="130" y="190" width="430" height="110" as="geometry"/>
                </mxCell>
                <mxCell id="16" value="Gerenciar Produtos" style="html=1;strokeColor=none;fillColor=none;align=center;verticalAlign=middle;rotatable=0;whiteSpace=wrap;" parent="15" vertex="1">
                    <mxGeometry y="32.35235294117647" width="430" height="45.29411764705882" as="geometry"/>
                </mxCell>
                <mxCell id="17" value="" style="shape=ellipse;container=1;horizontal=1;horizontalStack=0;resizeParent=1;resizeParentMax=0;resizeLast=0;html=1;dashed=0;collapsible=0;" parent="2" vertex="1">
                    <mxGeometry x="140" y="60" width="430" height="110" as="geometry"/>
                </mxCell>
                <mxCell id="18" value="Registro de Cliente" style="html=1;strokeColor=none;fillColor=none;align=center;verticalAlign=middle;rotatable=0;whiteSpace=wrap;" parent="17" vertex="1">
                    <mxGeometry y="25.88235294117647" width="430" height="45.29411764705882" as="geometry"/>
                </mxCell>
                <mxCell id="19" value="" style="shape=ellipse;container=1;horizontal=1;horizontalStack=0;resizeParent=1;resizeParentMax=0;resizeLast=0;html=1;dashed=0;collapsible=0;" parent="2" vertex="1">
                    <mxGeometry x="90" y="560" width="460" height="110" as="geometry"/>
                </mxCell>
                <mxCell id="20" value="Registro de Feedback" style="html=1;strokeColor=none;fillColor=none;align=center;verticalAlign=middle;rotatable=0;whiteSpace=wrap;" parent="19" vertex="1">
                    <mxGeometry x="9.787234042553191" y="32.35" width="401.27659574468083" height="45.29" as="geometry"/>
                </mxCell>
                <mxCell id="23" value="" style="shape=ellipse;container=1;horizontal=1;horizontalStack=0;resizeParent=1;resizeParentMax=0;resizeLast=0;html=1;dashed=0;collapsible=0;" parent="2" vertex="1">
                    <mxGeometry x="80" y="950" width="430" height="110" as="geometry"/>
                </mxCell>
                <mxCell id="24" value="&amp;nbsp;Registro de Observação" style="html=1;strokeColor=none;fillColor=none;align=center;verticalAlign=middle;rotatable=0;whiteSpace=wrap;" parent="23" vertex="1">
                    <mxGeometry y="25.88235294117647" width="430" height="45.29411764705882" as="geometry"/>
                </mxCell>
                <mxCell id="10" value="" style="shape=ellipse;container=1;horizontal=1;horizontalStack=0;resizeParent=1;resizeParentMax=0;resizeLast=0;html=1;dashed=0;collapsible=0;" parent="2" vertex="1">
                    <mxGeometry x="80" y="1080" width="430" height="110" as="geometry"/>
                </mxCell>
                <mxCell id="11" value="Gerenciar Usuário" style="html=1;strokeColor=none;fillColor=none;align=center;verticalAlign=middle;rotatable=0;whiteSpace=wrap;" parent="10" vertex="1">
                    <mxGeometry y="25.88235294117647" width="430" height="45.294117647058826" as="geometry"/>
                </mxCell>
                <mxCell id="21" value="" style="shape=ellipse;container=1;horizontal=1;horizontalStack=0;resizeParent=1;resizeParentMax=0;resizeLast=0;html=1;dashed=0;collapsible=0;" parent="2" vertex="1">
                    <mxGeometry x="110" y="440" width="440" height="110" as="geometry"/>
                </mxCell>
                <mxCell id="22" value="Registro de Forrmulário" style="html=1;strokeColor=none;fillColor=none;align=center;verticalAlign=middle;rotatable=0;whiteSpace=wrap;" parent="21" vertex="1">
                    <mxGeometry y="25.88235294117647" width="440" height="45.29411764705882" as="geometry"/>
                </mxCell>
                <mxCell id="sY_w0V5RQDwbvFcH917--40" value="" style="shape=ellipse;container=1;horizontal=1;horizontalStack=0;resizeParent=1;resizeParentMax=0;resizeLast=0;html=1;dashed=0;collapsible=0;" vertex="1" parent="2">
                    <mxGeometry x="80" y="690" width="470" height="110" as="geometry"/>
                </mxCell>
                <mxCell id="sY_w0V5RQDwbvFcH917--41" value="Registro de Campanha" style="html=1;strokeColor=none;fillColor=none;align=center;verticalAlign=middle;rotatable=0;whiteSpace=wrap;" vertex="1" parent="sY_w0V5RQDwbvFcH917--40">
                    <mxGeometry y="31.18" width="460" height="47.64" as="geometry"/>
                </mxCell>
                <mxCell id="sY_w0V5RQDwbvFcH917--42" value="" style="shape=ellipse;container=1;horizontal=1;horizontalStack=0;resizeParent=1;resizeParentMax=0;resizeLast=0;html=1;dashed=0;collapsible=0;" vertex="1" parent="2">
                    <mxGeometry x="70" y="820" width="470" height="110" as="geometry"/>
                </mxCell>
                <mxCell id="sY_w0V5RQDwbvFcH917--43" value="Registro de Relatório" style="html=1;strokeColor=none;fillColor=none;align=center;verticalAlign=middle;rotatable=0;whiteSpace=wrap;" vertex="1" parent="sY_w0V5RQDwbvFcH917--42">
                    <mxGeometry y="31.18" width="460" height="47.64" as="geometry"/>
                </mxCell>
                <mxCell id="AJJowoWmnxDWfvHGBQjQ-42" value="" style="shape=ellipse;container=1;horizontal=1;horizontalStack=0;resizeParent=1;resizeParentMax=0;resizeLast=0;html=1;dashed=0;collapsible=0;" vertex="1" parent="2">
                    <mxGeometry x="120" y="320" width="430" height="110" as="geometry"/>
                </mxCell>
                <mxCell id="AJJowoWmnxDWfvHGBQjQ-43" value="Registro de Perguntas" style="html=1;strokeColor=none;fillColor=none;align=center;verticalAlign=middle;rotatable=0;whiteSpace=wrap;" vertex="1" parent="AJJowoWmnxDWfvHGBQjQ-42">
                    <mxGeometry y="25.88235294117647" width="430" height="45.29411764705882" as="geometry"/>
                </mxCell>
                <mxCell id="3" value="Administrador&lt;div&gt;&lt;br&gt;&lt;/div&gt;" style="shape=umlActor;verticalLabelPosition=bottom;verticalAlign=top;html=1;" parent="1" vertex="1">
                    <mxGeometry x="200" y="980" width="30" height="60" as="geometry"/>
                </mxCell>
                <mxCell id="4" value="&lt;div&gt;Funcionários&lt;/div&gt;" style="shape=umlActor;verticalLabelPosition=bottom;verticalAlign=top;html=1;" parent="1" vertex="1">
                    <mxGeometry x="200" y="380" width="30" height="60" as="geometry"/>
                </mxCell>
                <mxCell id="7" value="Usuário&lt;div&gt;&lt;br&gt;&lt;/div&gt;" style="shape=umlActor;verticalLabelPosition=bottom;verticalAlign=top;html=1;" parent="1" vertex="1">
                    <mxGeometry x="50" y="540" width="30" height="60" as="geometry"/>
                </mxCell>
                <mxCell id="8" style="edgeStyle=none;html=1;exitX=0.5;exitY=0.5;exitDx=0;exitDy=0;exitPerimeter=0;entryX=0.5;entryY=0.5;entryDx=0;entryDy=0;entryPerimeter=0;endArrow=classic;endFill=1;" parent="1" source="4" target="7" edge="1">
                    <mxGeometry relative="1" as="geometry"/>
                </mxCell>
                <mxCell id="9" style="edgeStyle=none;html=1;exitX=0.5;exitY=0.5;exitDx=0;exitDy=0;exitPerimeter=0;entryX=0.5;entryY=0.5;entryDx=0;entryDy=0;entryPerimeter=0;endArrow=classic;endFill=1;" parent="1" source="3" target="7" edge="1">
                    <mxGeometry relative="1" as="geometry">
                        <mxPoint x="215" y="420" as="sourcePoint"/>
                        <mxPoint x="75" y="580" as="targetPoint"/>
                    </mxGeometry>
                </mxCell>
                <mxCell id="30" style="edgeStyle=none;html=1;exitX=0;exitY=0.5;exitDx=0;exitDy=0;entryX=0.5;entryY=0.5;entryDx=0;entryDy=0;entryPerimeter=0;endArrow=none;endFill=0;" parent="1" source="11" target="3" edge="1">
                    <mxGeometry relative="1" as="geometry"/>
                </mxCell>
                <mxCell id="31" style="edgeStyle=none;html=1;exitX=0;exitY=0.5;exitDx=0;exitDy=0;entryX=0.5;entryY=0.5;entryDx=0;entryDy=0;entryPerimeter=0;endArrow=none;endFill=0;" parent="1" source="18" target="4" edge="1">
                    <mxGeometry relative="1" as="geometry"/>
                </mxCell>
                <mxCell id="32" style="edgeStyle=none;html=1;entryX=0.5;entryY=0.5;entryDx=0;entryDy=0;entryPerimeter=0;endArrow=none;endFill=0;exitX=0;exitY=0.5;exitDx=0;exitDy=0;" parent="1" source="16" target="4" edge="1">
                    <mxGeometry relative="1" as="geometry"/>
                </mxCell>
                <mxCell id="34" style="edgeStyle=none;html=1;entryX=0.5;entryY=0.5;entryDx=0;entryDy=0;entryPerimeter=0;endArrow=none;endFill=0;exitX=0;exitY=0.5;exitDx=0;exitDy=0;" parent="1" source="19" target="4" edge="1">
                    <mxGeometry relative="1" as="geometry">
                        <mxPoint x="440" y="570" as="sourcePoint"/>
                    </mxGeometry>
                </mxCell>
                <mxCell id="39" style="edgeStyle=none;html=1;exitX=0;exitY=0.75;exitDx=0;exitDy=0;endArrow=none;endFill=0;" parent="1" source="22" edge="1">
                    <mxGeometry relative="1" as="geometry">
                        <mxPoint x="216" y="410" as="targetPoint"/>
                    </mxGeometry>
                </mxCell>
                <mxCell id="oKRAuuzk3HZKJgSUF7du-40" style="edgeStyle=none;html=1;entryX=0.5;entryY=0.5;entryDx=0;entryDy=0;entryPerimeter=0;endArrow=none;endFill=0;exitX=0;exitY=0.5;exitDx=0;exitDy=0;" edge="1" parent="1" source="sY_w0V5RQDwbvFcH917--41" target="4">
                    <mxGeometry relative="1" as="geometry">
                        <mxPoint x="450" y="710" as="sourcePoint"/>
                        <mxPoint x="225" y="420" as="targetPoint"/>
                    </mxGeometry>
                </mxCell>
                <mxCell id="oKRAuuzk3HZKJgSUF7du-41" style="edgeStyle=none;html=1;entryX=0.5;entryY=0.5;entryDx=0;entryDy=0;entryPerimeter=0;endArrow=none;endFill=0;exitX=0;exitY=0.5;exitDx=0;exitDy=0;" edge="1" parent="1" source="sY_w0V5RQDwbvFcH917--43" target="4">
                    <mxGeometry relative="1" as="geometry">
                        <mxPoint x="435" y="845" as="sourcePoint"/>
                        <mxPoint x="225" y="420" as="targetPoint"/>
                    </mxGeometry>
                </mxCell>
                <mxCell id="AJJowoWmnxDWfvHGBQjQ-44" style="edgeStyle=none;html=1;exitX=0;exitY=0.5;exitDx=0;exitDy=0;entryX=0.5;entryY=0.5;entryDx=0;entryDy=0;entryPerimeter=0;endArrow=none;endFill=0;" edge="1" parent="1" source="24" target="3">
                    <mxGeometry relative="1" as="geometry">
                        <mxPoint x="450" y="1339" as="sourcePoint"/>
                        <mxPoint x="225" y="1020" as="targetPoint"/>
                    </mxGeometry>
                </mxCell>
                <mxCell id="AJJowoWmnxDWfvHGBQjQ-45" style="edgeStyle=none;html=1;exitX=0.479;exitY=0.383;exitDx=0;exitDy=0;entryX=0.5;entryY=0.5;entryDx=0;entryDy=0;entryPerimeter=0;endArrow=none;endFill=0;exitPerimeter=0;" edge="1" parent="1" source="4" target="3">
                    <mxGeometry relative="1" as="geometry">
                        <mxPoint x="460" y="1209" as="sourcePoint"/>
                        <mxPoint x="225" y="1020" as="targetPoint"/>
                    </mxGeometry>
                </mxCell>
                <mxCell id="AJJowoWmnxDWfvHGBQjQ-46" style="edgeStyle=none;html=1;entryX=0.5;entryY=0.5;entryDx=0;entryDy=0;entryPerimeter=0;endArrow=none;endFill=0;exitX=0;exitY=0.5;exitDx=0;exitDy=0;" edge="1" parent="1" source="AJJowoWmnxDWfvHGBQjQ-43" target="4">
                    <mxGeometry relative="1" as="geometry">
                        <mxPoint x="490" y="455" as="sourcePoint"/>
                        <mxPoint x="225" y="420" as="targetPoint"/>
                    </mxGeometry>
                </mxCell>
            </root>
        </mxGraphModel>
    </diagram>
    <diagram id="60QMo4iGGCd3Ksd6Dm8v" name="Subdomínio-Gestão_Clientes">
        <mxGraphModel dx="1456" dy="624" grid="1" gridSize="10" guides="1" tooltips="1" connect="1" arrows="1" fold="1" page="1" pageScale="1" pageWidth="850" pageHeight="1100" math="0" shadow="0">
            <root>
                <mxCell id="0"/>
                <mxCell id="1" parent="0"/>
                <mxCell id="TLDfQnZ_Xopkt6newSEb-1" value="&lt;div&gt;Funcionários&lt;/div&gt;" style="shape=umlActor;verticalLabelPosition=bottom;verticalAlign=top;html=1;" parent="1" vertex="1">
                    <mxGeometry x="130" y="230" width="30" height="60" as="geometry"/>
                </mxCell>
                <mxCell id="9u6-SMGlgM0C-FZWu7tn-1" value="Administrador&lt;div&gt;&lt;br&gt;&lt;/div&gt;" style="shape=umlActor;verticalLabelPosition=bottom;verticalAlign=top;html=1;" parent="1" vertex="1">
                    <mxGeometry x="130" y="460" width="30" height="60" as="geometry"/>
                </mxCell>
                <mxCell id="BPRLt1gvi2N8AYVLfHpz-1" value="Subdomínio Gestão_Clien&lt;span style=&quot;background-color: transparent;&quot;&gt;tes&lt;/span&gt;" style="shape=umlFrame;whiteSpace=wrap;html=1;pointerEvents=0;recursiveResize=0;container=1;collapsible=0;width=190;height=30;" parent="1" vertex="1">
                    <mxGeometry x="210" y="90" width="730" height="560" as="geometry"/>
                </mxCell>
                <mxCell id="BPRLt1gvi2N8AYVLfHpz-4" value="" style="shape=ellipse;container=1;horizontal=1;horizontalStack=0;resizeParent=1;resizeParentMax=0;resizeLast=0;html=1;dashed=0;collapsible=0;" parent="BPRLt1gvi2N8AYVLfHpz-1" vertex="1">
                    <mxGeometry x="20" y="240" width="260" height="90" as="geometry"/>
                </mxCell>
                <mxCell id="BPRLt1gvi2N8AYVLfHpz-5" value="Registro de Cliente" style="html=1;strokeColor=none;fillColor=none;align=center;verticalAlign=middle;rotatable=0;whiteSpace=wrap;" parent="BPRLt1gvi2N8AYVLfHpz-4" vertex="1">
                    <mxGeometry x="20" y="26.47" width="240" height="37.06" as="geometry"/>
                </mxCell>
                <mxCell id="BPRLt1gvi2N8AYVLfHpz-27" value="" style="shape=ellipse;container=1;horizontal=1;horizontalStack=0;resizeParent=1;resizeParentMax=0;resizeLast=0;html=1;dashed=0;collapsible=0;" parent="BPRLt1gvi2N8AYVLfHpz-1" vertex="1">
                    <mxGeometry x="370" y="70" width="260" height="90" as="geometry"/>
                </mxCell>
                <mxCell id="BPRLt1gvi2N8AYVLfHpz-28" value="Criar cliente" style="html=1;strokeColor=none;fillColor=none;align=center;verticalAlign=middle;rotatable=0;whiteSpace=wrap;" parent="BPRLt1gvi2N8AYVLfHpz-27" vertex="1">
                    <mxGeometry y="26.466470588235296" width="260" height="37.05882352941176" as="geometry"/>
                </mxCell>
                <mxCell id="BPRLt1gvi2N8AYVLfHpz-29" value="" style="shape=ellipse;container=1;horizontal=1;horizontalStack=0;resizeParent=1;resizeParentMax=0;resizeLast=0;html=1;dashed=0;collapsible=0;" parent="BPRLt1gvi2N8AYVLfHpz-1" vertex="1">
                    <mxGeometry x="370" y="190" width="260" height="90" as="geometry"/>
                </mxCell>
                <mxCell id="BPRLt1gvi2N8AYVLfHpz-30" value="Recuperar cliente" style="html=1;strokeColor=none;fillColor=none;align=center;verticalAlign=middle;rotatable=0;whiteSpace=wrap;" parent="BPRLt1gvi2N8AYVLfHpz-29" vertex="1">
                    <mxGeometry y="26.466470588235296" width="260" height="37.05882352941176" as="geometry"/>
                </mxCell>
                <mxCell id="BPRLt1gvi2N8AYVLfHpz-31" value="" style="shape=ellipse;container=1;horizontal=1;horizontalStack=0;resizeParent=1;resizeParentMax=0;resizeLast=0;html=1;dashed=0;collapsible=0;" parent="BPRLt1gvi2N8AYVLfHpz-1" vertex="1">
                    <mxGeometry x="370" y="300" width="260" height="90" as="geometry"/>
                </mxCell>
                <mxCell id="BPRLt1gvi2N8AYVLfHpz-32" value="Atualizar cliente" style="html=1;strokeColor=none;fillColor=none;align=center;verticalAlign=middle;rotatable=0;whiteSpace=wrap;" parent="BPRLt1gvi2N8AYVLfHpz-31" vertex="1">
                    <mxGeometry y="26.466470588235296" width="260" height="37.05882352941176" as="geometry"/>
                </mxCell>
                <mxCell id="BPRLt1gvi2N8AYVLfHpz-33" value="" style="shape=ellipse;container=1;horizontal=1;horizontalStack=0;resizeParent=1;resizeParentMax=0;resizeLast=0;html=1;dashed=0;collapsible=0;" parent="BPRLt1gvi2N8AYVLfHpz-1" vertex="1">
                    <mxGeometry x="380" y="415" width="260" height="90" as="geometry"/>
                </mxCell>
                <mxCell id="BPRLt1gvi2N8AYVLfHpz-34" value="Deletar cliente" style="html=1;strokeColor=none;fillColor=none;align=center;verticalAlign=middle;rotatable=0;whiteSpace=wrap;" parent="BPRLt1gvi2N8AYVLfHpz-33" vertex="1">
                    <mxGeometry y="26.466470588235296" width="260" height="37.05882352941176" as="geometry"/>
                </mxCell>
                <mxCell id="BPRLt1gvi2N8AYVLfHpz-35" value="&amp;lt;&amp;lt;extend&amp;gt;&amp;gt;" style="html=1;verticalAlign=bottom;labelBackgroundColor=none;endArrow=open;endFill=0;dashed=1;exitX=0;exitY=0.75;exitDx=0;exitDy=0;entryX=0.723;entryY=0.067;entryDx=0;entryDy=0;entryPerimeter=0;" parent="BPRLt1gvi2N8AYVLfHpz-1" source="BPRLt1gvi2N8AYVLfHpz-28" target="BPRLt1gvi2N8AYVLfHpz-4" edge="1">
                    <mxGeometry width="160" relative="1" as="geometry">
                        <mxPoint x="130" y="250" as="sourcePoint"/>
                        <mxPoint x="290" y="250" as="targetPoint"/>
                    </mxGeometry>
                </mxCell>
                <mxCell id="BPRLt1gvi2N8AYVLfHpz-36" value="&amp;lt;&amp;lt;extend&amp;gt;&amp;gt;" style="html=1;verticalAlign=bottom;labelBackgroundColor=none;endArrow=open;endFill=0;dashed=1;exitX=0;exitY=0.5;exitDx=0;exitDy=0;entryX=0.854;entryY=0.167;entryDx=0;entryDy=0;entryPerimeter=0;" parent="BPRLt1gvi2N8AYVLfHpz-1" source="BPRLt1gvi2N8AYVLfHpz-29" target="BPRLt1gvi2N8AYVLfHpz-4" edge="1">
                    <mxGeometry width="160" relative="1" as="geometry">
                        <mxPoint x="320" y="134" as="sourcePoint"/>
                        <mxPoint x="218" y="256" as="targetPoint"/>
                    </mxGeometry>
                </mxCell>
                <mxCell id="BPRLt1gvi2N8AYVLfHpz-37" value="&amp;lt;&amp;lt;extend&amp;gt;&amp;gt;" style="html=1;verticalAlign=bottom;labelBackgroundColor=none;endArrow=open;endFill=0;dashed=1;exitX=0;exitY=0.5;exitDx=0;exitDy=0;entryX=0.969;entryY=0.733;entryDx=0;entryDy=0;entryPerimeter=0;" parent="BPRLt1gvi2N8AYVLfHpz-1" source="BPRLt1gvi2N8AYVLfHpz-32" target="BPRLt1gvi2N8AYVLfHpz-4" edge="1">
                    <mxGeometry width="160" relative="1" as="geometry">
                        <mxPoint x="330" y="144" as="sourcePoint"/>
                        <mxPoint x="228" y="266" as="targetPoint"/>
                    </mxGeometry>
                </mxCell>
                <mxCell id="BPRLt1gvi2N8AYVLfHpz-38" value="&amp;lt;&amp;lt;extend&amp;gt;&amp;gt;" style="html=1;verticalAlign=bottom;labelBackgroundColor=none;endArrow=open;endFill=0;dashed=1;exitX=0;exitY=0.5;exitDx=0;exitDy=0;entryX=0.85;entryY=0.9;entryDx=0;entryDy=0;entryPerimeter=0;" parent="BPRLt1gvi2N8AYVLfHpz-1" source="BPRLt1gvi2N8AYVLfHpz-34" target="BPRLt1gvi2N8AYVLfHpz-4" edge="1">
                    <mxGeometry width="160" relative="1" as="geometry">
                        <mxPoint x="340" y="154" as="sourcePoint"/>
                        <mxPoint x="238" y="276" as="targetPoint"/>
                    </mxGeometry>
                </mxCell>
                <mxCell id="BPRLt1gvi2N8AYVLfHpz-39" style="edgeStyle=none;html=1;entryX=0.5;entryY=0.5;entryDx=0;entryDy=0;entryPerimeter=0;exitX=0;exitY=0.5;exitDx=0;exitDy=0;endArrow=none;endFill=0;" parent="1" source="BPRLt1gvi2N8AYVLfHpz-4" target="TLDfQnZ_Xopkt6newSEb-1" edge="1">
                    <mxGeometry relative="1" as="geometry"/>
                </mxCell>
                <mxCell id="BPRLt1gvi2N8AYVLfHpz-40" style="edgeStyle=none;html=1;entryX=0.5;entryY=0.5;entryDx=0;entryDy=0;entryPerimeter=0;exitX=0;exitY=0.5;exitDx=0;exitDy=0;endArrow=none;endFill=0;" parent="1" source="BPRLt1gvi2N8AYVLfHpz-4" target="9u6-SMGlgM0C-FZWu7tn-1" edge="1">
                    <mxGeometry relative="1" as="geometry">
                        <mxPoint x="240" y="385" as="sourcePoint"/>
                        <mxPoint x="155" y="270" as="targetPoint"/>
                    </mxGeometry>
                </mxCell>
            </root>
        </mxGraphModel>
    </diagram>
    <diagram id="KkEZVV5sevTK0r5oRL3t" name="Subdomínio-Produtos">
        <mxGraphModel dx="1456" dy="624" grid="1" gridSize="10" guides="1" tooltips="1" connect="1" arrows="1" fold="1" page="1" pageScale="1" pageWidth="850" pageHeight="1100" math="0" shadow="0">
            <root>
                <mxCell id="0"/>
                <mxCell id="1" parent="0"/>
            </root>
        </mxGraphModel>
    </diagram>
    <diagram id="NPJSrmPh0s8holYXsfMD" name="Subdomínio-Feedback">
        <mxGraphModel dx="1456" dy="624" grid="1" gridSize="10" guides="1" tooltips="1" connect="1" arrows="1" fold="1" page="1" pageScale="1" pageWidth="850" pageHeight="1100" math="0" shadow="0">
            <root>
                <mxCell id="0"/>
                <mxCell id="1" parent="0"/>
                <mxCell id="yDrbsiPIxxd4oxRuWaze-1" value="&lt;div&gt;Funcionários&lt;/div&gt;" style="shape=umlActor;verticalLabelPosition=bottom;verticalAlign=top;html=1;" parent="1" vertex="1">
                    <mxGeometry x="50" y="500" width="50" height="74" as="geometry"/>
                </mxCell>
                <mxCell id="yDrbsiPIxxd4oxRuWaze-2" value="Administrador&lt;div&gt;&lt;br&gt;&lt;/div&gt;" style="shape=umlActor;verticalLabelPosition=bottom;verticalAlign=top;html=1;" parent="1" vertex="1">
                    <mxGeometry x="50" y="830" width="50" height="80" as="geometry"/>
                </mxCell>
                <mxCell id="yDrbsiPIxxd4oxRuWaze-3" value="Subdomínio Feedback" style="shape=umlFrame;whiteSpace=wrap;html=1;pointerEvents=0;recursiveResize=0;container=1;collapsible=0;width=190;height=30;" parent="1" vertex="1">
                    <mxGeometry x="210" y="90" width="790" height="1330" as="geometry"/>
                </mxCell>
                <mxCell id="yDrbsiPIxxd4oxRuWaze-4" value="" style="shape=ellipse;container=1;horizontal=1;horizontalStack=0;resizeParent=1;resizeParentMax=0;resizeLast=0;html=1;dashed=0;collapsible=0;" parent="yDrbsiPIxxd4oxRuWaze-3" vertex="1">
                    <mxGeometry x="70" y="263.53" width="260" height="90" as="geometry"/>
                </mxCell>
                <mxCell id="yDrbsiPIxxd4oxRuWaze-5" value="Registro de Feedback" style="html=1;strokeColor=none;fillColor=none;align=center;verticalAlign=middle;rotatable=0;whiteSpace=wrap;" parent="yDrbsiPIxxd4oxRuWaze-4" vertex="1">
                    <mxGeometry x="20" y="26.47" width="220" height="37.06" as="geometry"/>
                </mxCell>
                <mxCell id="yDrbsiPIxxd4oxRuWaze-6" value="" style="shape=ellipse;container=1;horizontal=1;horizontalStack=0;resizeParent=1;resizeParentMax=0;resizeLast=0;html=1;dashed=0;collapsible=0;" parent="yDrbsiPIxxd4oxRuWaze-3" vertex="1">
                    <mxGeometry x="430" y="30" width="260" height="90" as="geometry"/>
                </mxCell>
                <mxCell id="yDrbsiPIxxd4oxRuWaze-7" value="Criar&amp;nbsp;&lt;span style=&quot;color: rgb(0, 0, 0);&quot;&gt;Feedback&lt;/span&gt;" style="html=1;strokeColor=none;fillColor=none;align=center;verticalAlign=middle;rotatable=0;whiteSpace=wrap;" parent="yDrbsiPIxxd4oxRuWaze-6" vertex="1">
                    <mxGeometry y="26.466470588235296" width="260" height="37.05882352941176" as="geometry"/>
                </mxCell>
                <mxCell id="yDrbsiPIxxd4oxRuWaze-8" value="" style="shape=ellipse;container=1;horizontal=1;horizontalStack=0;resizeParent=1;resizeParentMax=0;resizeLast=0;html=1;dashed=0;collapsible=0;" parent="yDrbsiPIxxd4oxRuWaze-3" vertex="1">
                    <mxGeometry x="430" y="130" width="260" height="90" as="geometry"/>
                </mxCell>
                <mxCell id="yDrbsiPIxxd4oxRuWaze-9" value="Recuperar&amp;nbsp;&lt;span style=&quot;color: rgb(0, 0, 0);&quot;&gt;Feedback&lt;/span&gt;" style="html=1;strokeColor=none;fillColor=none;align=center;verticalAlign=middle;rotatable=0;whiteSpace=wrap;" parent="yDrbsiPIxxd4oxRuWaze-8" vertex="1">
                    <mxGeometry y="26.466470588235296" width="260" height="37.05882352941176" as="geometry"/>
                </mxCell>
                <mxCell id="yDrbsiPIxxd4oxRuWaze-10" value="" style="shape=ellipse;container=1;horizontal=1;horizontalStack=0;resizeParent=1;resizeParentMax=0;resizeLast=0;html=1;dashed=0;collapsible=0;" parent="yDrbsiPIxxd4oxRuWaze-3" vertex="1">
                    <mxGeometry x="430" y="230" width="260" height="90" as="geometry"/>
                </mxCell>
                <mxCell id="yDrbsiPIxxd4oxRuWaze-11" value="Atualizar&amp;nbsp;&lt;span style=&quot;color: rgb(0, 0, 0);&quot;&gt;Feedback&lt;/span&gt;" style="html=1;strokeColor=none;fillColor=none;align=center;verticalAlign=middle;rotatable=0;whiteSpace=wrap;" parent="yDrbsiPIxxd4oxRuWaze-10" vertex="1">
                    <mxGeometry y="26.466470588235296" width="260" height="37.05882352941176" as="geometry"/>
                </mxCell>
                <mxCell id="yDrbsiPIxxd4oxRuWaze-12" value="" style="shape=ellipse;container=1;horizontal=1;horizontalStack=0;resizeParent=1;resizeParentMax=0;resizeLast=0;html=1;dashed=0;collapsible=0;" parent="yDrbsiPIxxd4oxRuWaze-3" vertex="1">
                    <mxGeometry x="420" y="330" width="260" height="90" as="geometry"/>
                </mxCell>
                <mxCell id="yDrbsiPIxxd4oxRuWaze-13" value="Deletar&amp;nbsp;&lt;span style=&quot;color: rgb(0, 0, 0);&quot;&gt;Feedback&lt;/span&gt;" style="html=1;strokeColor=none;fillColor=none;align=center;verticalAlign=middle;rotatable=0;whiteSpace=wrap;" parent="yDrbsiPIxxd4oxRuWaze-12" vertex="1">
                    <mxGeometry y="26.466470588235296" width="260" height="37.05882352941176" as="geometry"/>
                </mxCell>
                <mxCell id="yDrbsiPIxxd4oxRuWaze-14" value="&amp;lt;&amp;lt;extend&amp;gt;&amp;gt;" style="html=1;verticalAlign=bottom;labelBackgroundColor=none;endArrow=open;endFill=0;dashed=1;exitX=0;exitY=0.75;exitDx=0;exitDy=0;entryX=0.793;entryY=0.154;entryDx=0;entryDy=0;entryPerimeter=0;" parent="yDrbsiPIxxd4oxRuWaze-3" source="yDrbsiPIxxd4oxRuWaze-7" target="yDrbsiPIxxd4oxRuWaze-4" edge="1">
                    <mxGeometry width="160" relative="1" as="geometry">
                        <mxPoint x="100" y="40" as="sourcePoint"/>
                        <mxPoint x="260" y="40" as="targetPoint"/>
                    </mxGeometry>
                </mxCell>
                <mxCell id="yDrbsiPIxxd4oxRuWaze-15" value="&amp;lt;&amp;lt;extend&amp;gt;&amp;gt;" style="html=1;verticalAlign=bottom;labelBackgroundColor=none;endArrow=open;endFill=0;dashed=1;exitX=0;exitY=0.5;exitDx=0;exitDy=0;entryX=0.908;entryY=0.246;entryDx=0;entryDy=0;entryPerimeter=0;" parent="yDrbsiPIxxd4oxRuWaze-3" source="yDrbsiPIxxd4oxRuWaze-8" target="yDrbsiPIxxd4oxRuWaze-4" edge="1">
                    <mxGeometry x="0.0041" width="160" relative="1" as="geometry">
                        <mxPoint x="290" y="-76" as="sourcePoint"/>
                        <mxPoint x="188" y="46" as="targetPoint"/>
                        <mxPoint as="offset"/>
                    </mxGeometry>
                </mxCell>
                <mxCell id="yDrbsiPIxxd4oxRuWaze-16" value="&amp;lt;&amp;lt;extend&amp;gt;&amp;gt;" style="html=1;verticalAlign=bottom;labelBackgroundColor=none;endArrow=open;endFill=0;dashed=1;exitX=0;exitY=0.5;exitDx=0;exitDy=0;entryX=1;entryY=0.5;entryDx=0;entryDy=0;" parent="yDrbsiPIxxd4oxRuWaze-3" source="yDrbsiPIxxd4oxRuWaze-11" target="yDrbsiPIxxd4oxRuWaze-4" edge="1">
                    <mxGeometry width="160" relative="1" as="geometry">
                        <mxPoint x="300" y="-66" as="sourcePoint"/>
                        <mxPoint x="198" y="56" as="targetPoint"/>
                    </mxGeometry>
                </mxCell>
                <mxCell id="yDrbsiPIxxd4oxRuWaze-17" value="&amp;lt;&amp;lt;extend&amp;gt;&amp;gt;" style="html=1;verticalAlign=bottom;labelBackgroundColor=none;endArrow=open;endFill=0;dashed=1;exitX=0;exitY=0.5;exitDx=0;exitDy=0;entryX=0.924;entryY=0.77;entryDx=0;entryDy=0;entryPerimeter=0;" parent="yDrbsiPIxxd4oxRuWaze-3" source="yDrbsiPIxxd4oxRuWaze-13" target="yDrbsiPIxxd4oxRuWaze-4" edge="1">
                    <mxGeometry width="160" relative="1" as="geometry">
                        <mxPoint x="310" y="-56" as="sourcePoint"/>
                        <mxPoint x="208" y="66" as="targetPoint"/>
                    </mxGeometry>
                </mxCell>
                <mxCell id="XNfMGwLRJ7Np1aKlLclV-1" value="" style="shape=ellipse;container=1;horizontal=1;horizontalStack=0;resizeParent=1;resizeParentMax=0;resizeLast=0;html=1;dashed=0;collapsible=0;" parent="yDrbsiPIxxd4oxRuWaze-3" vertex="1">
                    <mxGeometry x="40" y="1040" width="260" height="90" as="geometry"/>
                </mxCell>
                <mxCell id="XNfMGwLRJ7Np1aKlLclV-2" value="Registro de Relatório" style="html=1;strokeColor=none;fillColor=none;align=center;verticalAlign=middle;rotatable=0;whiteSpace=wrap;" parent="XNfMGwLRJ7Np1aKlLclV-1" vertex="1">
                    <mxGeometry x="25" y="26.47" width="220" height="37.06" as="geometry"/>
                </mxCell>
                <mxCell id="XNfMGwLRJ7Np1aKlLclV-17" value="" style="shape=ellipse;container=1;horizontal=1;horizontalStack=0;resizeParent=1;resizeParentMax=0;resizeLast=0;html=1;dashed=0;collapsible=0;" parent="yDrbsiPIxxd4oxRuWaze-3" vertex="1">
                    <mxGeometry x="400" y="880" width="260" height="90" as="geometry"/>
                </mxCell>
                <mxCell id="XNfMGwLRJ7Np1aKlLclV-18" value="Criar Relatório" style="html=1;strokeColor=none;fillColor=none;align=center;verticalAlign=middle;rotatable=0;whiteSpace=wrap;" parent="XNfMGwLRJ7Np1aKlLclV-17" vertex="1">
                    <mxGeometry y="26.466470588235296" width="260" height="37.05882352941176" as="geometry"/>
                </mxCell>
                <mxCell id="XNfMGwLRJ7Np1aKlLclV-19" value="" style="shape=ellipse;container=1;horizontal=1;horizontalStack=0;resizeParent=1;resizeParentMax=0;resizeLast=0;html=1;dashed=0;collapsible=0;" parent="yDrbsiPIxxd4oxRuWaze-3" vertex="1">
                    <mxGeometry x="400" y="980" width="260" height="90" as="geometry"/>
                </mxCell>
                <mxCell id="XNfMGwLRJ7Np1aKlLclV-20" value="Recuperar Relatório" style="html=1;strokeColor=none;fillColor=none;align=center;verticalAlign=middle;rotatable=0;whiteSpace=wrap;" parent="XNfMGwLRJ7Np1aKlLclV-19" vertex="1">
                    <mxGeometry y="26.466470588235296" width="260" height="37.05882352941176" as="geometry"/>
                </mxCell>
                <mxCell id="XNfMGwLRJ7Np1aKlLclV-21" value="" style="shape=ellipse;container=1;horizontal=1;horizontalStack=0;resizeParent=1;resizeParentMax=0;resizeLast=0;html=1;dashed=0;collapsible=0;" parent="yDrbsiPIxxd4oxRuWaze-3" vertex="1">
                    <mxGeometry x="400" y="1080" width="260" height="90" as="geometry"/>
                </mxCell>
                <mxCell id="XNfMGwLRJ7Np1aKlLclV-22" value="Atualizar Relatório" style="html=1;strokeColor=none;fillColor=none;align=center;verticalAlign=middle;rotatable=0;whiteSpace=wrap;" parent="XNfMGwLRJ7Np1aKlLclV-21" vertex="1">
                    <mxGeometry y="26.466470588235296" width="260" height="37.05882352941176" as="geometry"/>
                </mxCell>
                <mxCell id="XNfMGwLRJ7Np1aKlLclV-23" value="" style="shape=ellipse;container=1;horizontal=1;horizontalStack=0;resizeParent=1;resizeParentMax=0;resizeLast=0;html=1;dashed=0;collapsible=0;" parent="yDrbsiPIxxd4oxRuWaze-3" vertex="1">
                    <mxGeometry x="400" y="1180" width="260" height="90" as="geometry"/>
                </mxCell>
                <mxCell id="XNfMGwLRJ7Np1aKlLclV-24" value="Deletar Relatório" style="html=1;strokeColor=none;fillColor=none;align=center;verticalAlign=middle;rotatable=0;whiteSpace=wrap;" parent="XNfMGwLRJ7Np1aKlLclV-23" vertex="1">
                    <mxGeometry y="26.466470588235296" width="260" height="37.05882352941176" as="geometry"/>
                </mxCell>
                <mxCell id="XNfMGwLRJ7Np1aKlLclV-25" value="&amp;lt;&amp;lt;extend&amp;gt;&amp;gt;" style="html=1;verticalAlign=bottom;labelBackgroundColor=none;endArrow=open;endFill=0;dashed=1;exitX=0;exitY=0.75;exitDx=0;exitDy=0;entryX=0.792;entryY=0.058;entryDx=0;entryDy=0;entryPerimeter=0;" parent="yDrbsiPIxxd4oxRuWaze-3" source="XNfMGwLRJ7Np1aKlLclV-18" target="XNfMGwLRJ7Np1aKlLclV-1" edge="1">
                    <mxGeometry width="160" relative="1" as="geometry">
                        <mxPoint x="70" y="890" as="sourcePoint"/>
                        <mxPoint x="246" y="1127" as="targetPoint"/>
                    </mxGeometry>
                </mxCell>
                <mxCell id="XNfMGwLRJ7Np1aKlLclV-26" value="&amp;lt;&amp;lt;extend&amp;gt;&amp;gt;" style="html=1;verticalAlign=bottom;labelBackgroundColor=none;endArrow=open;endFill=0;dashed=1;exitX=0;exitY=0.5;exitDx=0;exitDy=0;entryX=0.95;entryY=0.291;entryDx=0;entryDy=0;entryPerimeter=0;" parent="yDrbsiPIxxd4oxRuWaze-3" source="XNfMGwLRJ7Np1aKlLclV-19" target="XNfMGwLRJ7Np1aKlLclV-1" edge="1">
                    <mxGeometry x="0.0041" width="160" relative="1" as="geometry">
                        <mxPoint x="260" y="774" as="sourcePoint"/>
                        <mxPoint x="276" y="1136" as="targetPoint"/>
                        <mxPoint as="offset"/>
                    </mxGeometry>
                </mxCell>
                <mxCell id="XNfMGwLRJ7Np1aKlLclV-27" value="&amp;lt;&amp;lt;extend&amp;gt;&amp;gt;" style="html=1;verticalAlign=bottom;labelBackgroundColor=none;endArrow=open;endFill=0;dashed=1;exitX=0;exitY=0.5;exitDx=0;exitDy=0;entryX=1;entryY=0.5;entryDx=0;entryDy=0;" parent="yDrbsiPIxxd4oxRuWaze-3" source="XNfMGwLRJ7Np1aKlLclV-22" target="XNfMGwLRJ7Np1aKlLclV-1" edge="1">
                    <mxGeometry width="160" relative="1" as="geometry">
                        <mxPoint x="270" y="784" as="sourcePoint"/>
                        <mxPoint x="300" y="1159" as="targetPoint"/>
                    </mxGeometry>
                </mxCell>
                <mxCell id="XNfMGwLRJ7Np1aKlLclV-28" value="&amp;lt;&amp;lt;extend&amp;gt;&amp;gt;" style="html=1;verticalAlign=bottom;labelBackgroundColor=none;endArrow=open;endFill=0;dashed=1;exitX=0;exitY=0.5;exitDx=0;exitDy=0;entryX=0.847;entryY=0.873;entryDx=0;entryDy=0;entryPerimeter=0;" parent="yDrbsiPIxxd4oxRuWaze-3" source="XNfMGwLRJ7Np1aKlLclV-24" target="XNfMGwLRJ7Np1aKlLclV-1" edge="1">
                    <mxGeometry width="160" relative="1" as="geometry">
                        <mxPoint x="280" y="794" as="sourcePoint"/>
                        <mxPoint x="280" y="1183" as="targetPoint"/>
                    </mxGeometry>
                </mxCell>
                <mxCell id="yDrbsiPIxxd4oxRuWaze-18" style="edgeStyle=none;html=1;entryX=0.5;entryY=0.5;entryDx=0;entryDy=0;entryPerimeter=0;exitX=0;exitY=0.5;exitDx=0;exitDy=0;endArrow=none;endFill=0;" parent="1" source="yDrbsiPIxxd4oxRuWaze-4" target="yDrbsiPIxxd4oxRuWaze-1" edge="1">
                    <mxGeometry relative="1" as="geometry"/>
                </mxCell>
                <mxCell id="yDrbsiPIxxd4oxRuWaze-19" style="edgeStyle=none;html=1;entryX=0.5;entryY=0.5;entryDx=0;entryDy=0;entryPerimeter=0;exitX=0;exitY=0.5;exitDx=0;exitDy=0;endArrow=none;endFill=0;" parent="1" source="yDrbsiPIxxd4oxRuWaze-4" target="yDrbsiPIxxd4oxRuWaze-2" edge="1">
                    <mxGeometry relative="1" as="geometry">
                        <mxPoint x="240" y="501" as="sourcePoint"/>
                        <mxPoint x="155" y="386" as="targetPoint"/>
                    </mxGeometry>
                </mxCell>
                <mxCell id="XNfMGwLRJ7Np1aKlLclV-29" style="edgeStyle=none;html=1;entryX=0.5;entryY=0.5;entryDx=0;entryDy=0;entryPerimeter=0;exitX=0;exitY=0.5;exitDx=0;exitDy=0;endArrow=none;endFill=0;" parent="1" source="XNfMGwLRJ7Np1aKlLclV-1" target="yDrbsiPIxxd4oxRuWaze-2" edge="1">
                    <mxGeometry relative="1" as="geometry">
                        <mxPoint x="290" y="409" as="sourcePoint"/>
                        <mxPoint x="125" y="756" as="targetPoint"/>
                    </mxGeometry>
                </mxCell>
                <mxCell id="XNfMGwLRJ7Np1aKlLclV-30" value="" style="shape=ellipse;container=1;horizontal=1;horizontalStack=0;resizeParent=1;resizeParentMax=0;resizeLast=0;html=1;dashed=0;collapsible=0;" parent="1" vertex="1">
                    <mxGeometry x="250" y="700" width="260" height="90" as="geometry"/>
                </mxCell>
                <mxCell id="XNfMGwLRJ7Np1aKlLclV-31" value="Registro de Campanha" style="html=1;strokeColor=none;fillColor=none;align=center;verticalAlign=middle;rotatable=0;whiteSpace=wrap;" parent="XNfMGwLRJ7Np1aKlLclV-30" vertex="1">
                    <mxGeometry x="25" y="26.47" width="220" height="37.06" as="geometry"/>
                </mxCell>
                <mxCell id="XNfMGwLRJ7Np1aKlLclV-32" value="" style="shape=ellipse;container=1;horizontal=1;horizontalStack=0;resizeParent=1;resizeParentMax=0;resizeLast=0;html=1;dashed=0;collapsible=0;" parent="1" vertex="1">
                    <mxGeometry x="610" y="540" width="260" height="90" as="geometry"/>
                </mxCell>
                <mxCell id="XNfMGwLRJ7Np1aKlLclV-33" value="Criar Campanha" style="html=1;strokeColor=none;fillColor=none;align=center;verticalAlign=middle;rotatable=0;whiteSpace=wrap;" parent="XNfMGwLRJ7Np1aKlLclV-32" vertex="1">
                    <mxGeometry y="26.466470588235296" width="260" height="37.05882352941176" as="geometry"/>
                </mxCell>
                <mxCell id="XNfMGwLRJ7Np1aKlLclV-34" value="" style="shape=ellipse;container=1;horizontal=1;horizontalStack=0;resizeParent=1;resizeParentMax=0;resizeLast=0;html=1;dashed=0;collapsible=0;" parent="1" vertex="1">
                    <mxGeometry x="610" y="640" width="260" height="90" as="geometry"/>
                </mxCell>
                <mxCell id="XNfMGwLRJ7Np1aKlLclV-35" value="Recuperar Campanha" style="html=1;strokeColor=none;fillColor=none;align=center;verticalAlign=middle;rotatable=0;whiteSpace=wrap;" parent="XNfMGwLRJ7Np1aKlLclV-34" vertex="1">
                    <mxGeometry y="26.466470588235296" width="260" height="37.05882352941176" as="geometry"/>
                </mxCell>
                <mxCell id="XNfMGwLRJ7Np1aKlLclV-36" value="" style="shape=ellipse;container=1;horizontal=1;horizontalStack=0;resizeParent=1;resizeParentMax=0;resizeLast=0;html=1;dashed=0;collapsible=0;" parent="1" vertex="1">
                    <mxGeometry x="610" y="740" width="260" height="90" as="geometry"/>
                </mxCell>
                <mxCell id="XNfMGwLRJ7Np1aKlLclV-37" value="Atualizar Campanha" style="html=1;strokeColor=none;fillColor=none;align=center;verticalAlign=middle;rotatable=0;whiteSpace=wrap;" parent="XNfMGwLRJ7Np1aKlLclV-36" vertex="1">
                    <mxGeometry y="26.466470588235296" width="260" height="37.05882352941176" as="geometry"/>
                </mxCell>
                <mxCell id="XNfMGwLRJ7Np1aKlLclV-38" value="" style="shape=ellipse;container=1;horizontal=1;horizontalStack=0;resizeParent=1;resizeParentMax=0;resizeLast=0;html=1;dashed=0;collapsible=0;" parent="1" vertex="1">
                    <mxGeometry x="610" y="840" width="260" height="90" as="geometry"/>
                </mxCell>
                <mxCell id="XNfMGwLRJ7Np1aKlLclV-39" value="Deletar Campanha" style="html=1;strokeColor=none;fillColor=none;align=center;verticalAlign=middle;rotatable=0;whiteSpace=wrap;" parent="XNfMGwLRJ7Np1aKlLclV-38" vertex="1">
                    <mxGeometry y="26.466470588235296" width="260" height="37.05882352941176" as="geometry"/>
                </mxCell>
                <mxCell id="XNfMGwLRJ7Np1aKlLclV-40" value="&amp;lt;&amp;lt;extend&amp;gt;&amp;gt;" style="html=1;verticalAlign=bottom;labelBackgroundColor=none;endArrow=open;endFill=0;dashed=1;exitX=0;exitY=0.75;exitDx=0;exitDy=0;entryX=0.792;entryY=0.058;entryDx=0;entryDy=0;entryPerimeter=0;" parent="1" source="XNfMGwLRJ7Np1aKlLclV-33" target="XNfMGwLRJ7Np1aKlLclV-30" edge="1">
                    <mxGeometry width="160" relative="1" as="geometry">
                        <mxPoint x="280" y="550" as="sourcePoint"/>
                        <mxPoint x="456" y="787" as="targetPoint"/>
                    </mxGeometry>
                </mxCell>
                <mxCell id="XNfMGwLRJ7Np1aKlLclV-41" value="&amp;lt;&amp;lt;extend&amp;gt;&amp;gt;" style="html=1;verticalAlign=bottom;labelBackgroundColor=none;endArrow=open;endFill=0;dashed=1;exitX=0;exitY=0.5;exitDx=0;exitDy=0;entryX=0.95;entryY=0.291;entryDx=0;entryDy=0;entryPerimeter=0;" parent="1" source="XNfMGwLRJ7Np1aKlLclV-34" target="XNfMGwLRJ7Np1aKlLclV-30" edge="1">
                    <mxGeometry x="0.0041" width="160" relative="1" as="geometry">
                        <mxPoint x="470" y="434" as="sourcePoint"/>
                        <mxPoint x="486" y="796" as="targetPoint"/>
                        <mxPoint as="offset"/>
                    </mxGeometry>
                </mxCell>
                <mxCell id="XNfMGwLRJ7Np1aKlLclV-42" value="&amp;lt;&amp;lt;extend&amp;gt;&amp;gt;" style="html=1;verticalAlign=bottom;labelBackgroundColor=none;endArrow=open;endFill=0;dashed=1;exitX=0;exitY=0.5;exitDx=0;exitDy=0;entryX=1;entryY=0.5;entryDx=0;entryDy=0;" parent="1" source="XNfMGwLRJ7Np1aKlLclV-37" target="XNfMGwLRJ7Np1aKlLclV-30" edge="1">
                    <mxGeometry width="160" relative="1" as="geometry">
                        <mxPoint x="480" y="444" as="sourcePoint"/>
                        <mxPoint x="510" y="819" as="targetPoint"/>
                    </mxGeometry>
                </mxCell>
                <mxCell id="XNfMGwLRJ7Np1aKlLclV-43" value="&amp;lt;&amp;lt;extend&amp;gt;&amp;gt;" style="html=1;verticalAlign=bottom;labelBackgroundColor=none;endArrow=open;endFill=0;dashed=1;exitX=0;exitY=0.5;exitDx=0;exitDy=0;entryX=0.847;entryY=0.873;entryDx=0;entryDy=0;entryPerimeter=0;" parent="1" source="XNfMGwLRJ7Np1aKlLclV-39" target="XNfMGwLRJ7Np1aKlLclV-30" edge="1">
                    <mxGeometry width="160" relative="1" as="geometry">
                        <mxPoint x="490" y="454" as="sourcePoint"/>
                        <mxPoint x="490" y="843" as="targetPoint"/>
                    </mxGeometry>
                </mxCell>
                <mxCell id="XNfMGwLRJ7Np1aKlLclV-44" style="edgeStyle=none;html=1;entryX=0.5;entryY=0.5;entryDx=0;entryDy=0;entryPerimeter=0;exitX=0;exitY=0.5;exitDx=0;exitDy=0;endArrow=none;endFill=0;" parent="1" source="XNfMGwLRJ7Np1aKlLclV-30" target="yDrbsiPIxxd4oxRuWaze-1" edge="1">
                    <mxGeometry relative="1" as="geometry">
                        <mxPoint x="290" y="409" as="sourcePoint"/>
                        <mxPoint x="125" y="506" as="targetPoint"/>
                    </mxGeometry>
                </mxCell>
                <mxCell id="XNfMGwLRJ7Np1aKlLclV-45" style="edgeStyle=none;html=1;entryX=0.5;entryY=0.5;entryDx=0;entryDy=0;entryPerimeter=0;exitX=0;exitY=0.5;exitDx=0;exitDy=0;endArrow=none;endFill=0;" parent="1" source="XNfMGwLRJ7Np1aKlLclV-30" target="yDrbsiPIxxd4oxRuWaze-2" edge="1">
                    <mxGeometry relative="1" as="geometry">
                        <mxPoint x="290" y="409" as="sourcePoint"/>
                        <mxPoint x="125" y="890" as="targetPoint"/>
                    </mxGeometry>
                </mxCell>
            </root>
        </mxGraphModel>
    </diagram>
    <diagram id="sMMzqxYam4f158V5V8tY" name="Subdomínio-Formulário">
        <mxGraphModel dx="1820" dy="780" grid="1" gridSize="10" guides="1" tooltips="1" connect="1" arrows="1" fold="1" page="1" pageScale="1" pageWidth="850" pageHeight="1100" math="0" shadow="0">
            <root>
                <mxCell id="0"/>
                <mxCell id="1" parent="0"/>
                <mxCell id="SAJOazQFFOp8O49HAVbE-1" value="&lt;div&gt;Funcionários&lt;/div&gt;" style="shape=umlActor;verticalLabelPosition=bottom;verticalAlign=top;html=1;" parent="1" vertex="1">
                    <mxGeometry x="70" y="520" width="30" height="60" as="geometry"/>
                </mxCell>
                <mxCell id="SAJOazQFFOp8O49HAVbE-2" value="Administrador&lt;div&gt;&lt;br&gt;&lt;/div&gt;" style="shape=umlActor;verticalLabelPosition=bottom;verticalAlign=top;html=1;" parent="1" vertex="1">
                    <mxGeometry x="70" y="880" width="30" height="60" as="geometry"/>
                </mxCell>
                <mxCell id="SAJOazQFFOp8O49HAVbE-3" value="Subdomínio Formulario" style="shape=umlFrame;whiteSpace=wrap;html=1;pointerEvents=0;recursiveResize=0;container=1;collapsible=0;width=190;height=30;" parent="1" vertex="1">
                    <mxGeometry x="210" y="90" width="970" height="970" as="geometry"/>
                </mxCell>
                <mxCell id="SAJOazQFFOp8O49HAVbE-4" value="" style="shape=ellipse;container=1;horizontal=1;horizontalStack=0;resizeParent=1;resizeParentMax=0;resizeLast=0;html=1;dashed=0;collapsible=0;" parent="SAJOazQFFOp8O49HAVbE-3" vertex="1">
                    <mxGeometry x="320" y="570" width="260" height="90" as="geometry"/>
                </mxCell>
                <mxCell id="SAJOazQFFOp8O49HAVbE-5" value="Registro de Formulario" style="html=1;strokeColor=none;fillColor=none;align=center;verticalAlign=middle;rotatable=0;whiteSpace=wrap;" parent="SAJOazQFFOp8O49HAVbE-4" vertex="1">
                    <mxGeometry x="20" y="26.47" width="240" height="37.06" as="geometry"/>
                </mxCell>
                <mxCell id="SAJOazQFFOp8O49HAVbE-6" value="" style="shape=ellipse;container=1;horizontal=1;horizontalStack=0;resizeParent=1;resizeParentMax=0;resizeLast=0;html=1;dashed=0;collapsible=0;" parent="SAJOazQFFOp8O49HAVbE-3" vertex="1">
                    <mxGeometry x="670" y="400" width="260" height="90" as="geometry"/>
                </mxCell>
                <mxCell id="SAJOazQFFOp8O49HAVbE-7" value="Criar Formulario" style="html=1;strokeColor=none;fillColor=none;align=center;verticalAlign=middle;rotatable=0;whiteSpace=wrap;" parent="SAJOazQFFOp8O49HAVbE-6" vertex="1">
                    <mxGeometry y="26.466470588235296" width="260" height="37.05882352941176" as="geometry"/>
                </mxCell>
                <mxCell id="SAJOazQFFOp8O49HAVbE-8" value="" style="shape=ellipse;container=1;horizontal=1;horizontalStack=0;resizeParent=1;resizeParentMax=0;resizeLast=0;html=1;dashed=0;collapsible=0;" parent="SAJOazQFFOp8O49HAVbE-3" vertex="1">
                    <mxGeometry x="670" y="520" width="260" height="90" as="geometry"/>
                </mxCell>
                <mxCell id="SAJOazQFFOp8O49HAVbE-9" value="Recuperar&amp;nbsp;&lt;span style=&quot;color: rgb(0, 0, 0);&quot;&gt;Formulario&lt;/span&gt;" style="html=1;strokeColor=none;fillColor=none;align=center;verticalAlign=middle;rotatable=0;whiteSpace=wrap;" parent="SAJOazQFFOp8O49HAVbE-8" vertex="1">
                    <mxGeometry y="26.466470588235296" width="260" height="37.05882352941176" as="geometry"/>
                </mxCell>
                <mxCell id="SAJOazQFFOp8O49HAVbE-10" value="" style="shape=ellipse;container=1;horizontal=1;horizontalStack=0;resizeParent=1;resizeParentMax=0;resizeLast=0;html=1;dashed=0;collapsible=0;" parent="SAJOazQFFOp8O49HAVbE-3" vertex="1">
                    <mxGeometry x="670" y="630" width="260" height="90" as="geometry"/>
                </mxCell>
                <mxCell id="SAJOazQFFOp8O49HAVbE-11" value="Atualizar&amp;nbsp;&lt;span style=&quot;color: rgb(0, 0, 0);&quot;&gt;Formulario&lt;/span&gt;" style="html=1;strokeColor=none;fillColor=none;align=center;verticalAlign=middle;rotatable=0;whiteSpace=wrap;" parent="SAJOazQFFOp8O49HAVbE-10" vertex="1">
                    <mxGeometry y="26.466470588235296" width="260" height="37.05882352941176" as="geometry"/>
                </mxCell>
                <mxCell id="SAJOazQFFOp8O49HAVbE-12" value="" style="shape=ellipse;container=1;horizontal=1;horizontalStack=0;resizeParent=1;resizeParentMax=0;resizeLast=0;html=1;dashed=0;collapsible=0;" parent="SAJOazQFFOp8O49HAVbE-3" vertex="1">
                    <mxGeometry x="670" y="745" width="260" height="90" as="geometry"/>
                </mxCell>
                <mxCell id="SAJOazQFFOp8O49HAVbE-13" value="Deletar&amp;nbsp;&lt;span style=&quot;color: rgb(0, 0, 0);&quot;&gt;Formulario&lt;/span&gt;" style="html=1;strokeColor=none;fillColor=none;align=center;verticalAlign=middle;rotatable=0;whiteSpace=wrap;" parent="SAJOazQFFOp8O49HAVbE-12" vertex="1">
                    <mxGeometry y="26.466470588235296" width="260" height="37.05882352941176" as="geometry"/>
                </mxCell>
                <mxCell id="SAJOazQFFOp8O49HAVbE-14" value="&amp;lt;&amp;lt;extend&amp;gt;&amp;gt;" style="html=1;verticalAlign=bottom;labelBackgroundColor=none;endArrow=open;endFill=0;dashed=1;exitX=0;exitY=0.75;exitDx=0;exitDy=0;entryX=0.723;entryY=0.067;entryDx=0;entryDy=0;entryPerimeter=0;" parent="SAJOazQFFOp8O49HAVbE-3" source="SAJOazQFFOp8O49HAVbE-7" target="SAJOazQFFOp8O49HAVbE-4" edge="1">
                    <mxGeometry width="160" relative="1" as="geometry">
                        <mxPoint x="430" y="580" as="sourcePoint"/>
                        <mxPoint x="590" y="580" as="targetPoint"/>
                    </mxGeometry>
                </mxCell>
                <mxCell id="SAJOazQFFOp8O49HAVbE-15" value="&amp;lt;&amp;lt;extend&amp;gt;&amp;gt;" style="html=1;verticalAlign=bottom;labelBackgroundColor=none;endArrow=open;endFill=0;dashed=1;exitX=0;exitY=0.5;exitDx=0;exitDy=0;entryX=0.854;entryY=0.167;entryDx=0;entryDy=0;entryPerimeter=0;" parent="SAJOazQFFOp8O49HAVbE-3" source="SAJOazQFFOp8O49HAVbE-8" target="SAJOazQFFOp8O49HAVbE-4" edge="1">
                    <mxGeometry width="160" relative="1" as="geometry">
                        <mxPoint x="620" y="464" as="sourcePoint"/>
                        <mxPoint x="518" y="586" as="targetPoint"/>
                    </mxGeometry>
                </mxCell>
                <mxCell id="SAJOazQFFOp8O49HAVbE-16" value="&amp;lt;&amp;lt;extend&amp;gt;&amp;gt;" style="html=1;verticalAlign=bottom;labelBackgroundColor=none;endArrow=open;endFill=0;dashed=1;exitX=0;exitY=0.5;exitDx=0;exitDy=0;entryX=0.969;entryY=0.733;entryDx=0;entryDy=0;entryPerimeter=0;" parent="SAJOazQFFOp8O49HAVbE-3" source="SAJOazQFFOp8O49HAVbE-11" target="SAJOazQFFOp8O49HAVbE-4" edge="1">
                    <mxGeometry width="160" relative="1" as="geometry">
                        <mxPoint x="630" y="474" as="sourcePoint"/>
                        <mxPoint x="528" y="596" as="targetPoint"/>
                    </mxGeometry>
                </mxCell>
                <mxCell id="SAJOazQFFOp8O49HAVbE-17" value="&amp;lt;&amp;lt;extend&amp;gt;&amp;gt;" style="html=1;verticalAlign=bottom;labelBackgroundColor=none;endArrow=open;endFill=0;dashed=1;exitX=0;exitY=0.5;exitDx=0;exitDy=0;entryX=0.85;entryY=0.9;entryDx=0;entryDy=0;entryPerimeter=0;" parent="SAJOazQFFOp8O49HAVbE-3" source="SAJOazQFFOp8O49HAVbE-13" target="SAJOazQFFOp8O49HAVbE-4" edge="1">
                    <mxGeometry width="160" relative="1" as="geometry">
                        <mxPoint x="640" y="484" as="sourcePoint"/>
                        <mxPoint x="538" y="606" as="targetPoint"/>
                    </mxGeometry>
                </mxCell>
                <mxCell id="oKS3YCreeN8FTTp43qVJ-1" value="" style="shape=ellipse;container=1;horizontal=1;horizontalStack=0;resizeParent=1;resizeParentMax=0;resizeLast=0;html=1;dashed=0;collapsible=0;" parent="SAJOazQFFOp8O49HAVbE-3" vertex="1">
                    <mxGeometry x="100" y="190" width="260" height="90" as="geometry"/>
                </mxCell>
                <mxCell id="oKS3YCreeN8FTTp43qVJ-2" value="Registro de Pergunta" style="html=1;strokeColor=none;fillColor=none;align=center;verticalAlign=middle;rotatable=0;whiteSpace=wrap;" parent="oKS3YCreeN8FTTp43qVJ-1" vertex="1">
                    <mxGeometry x="20" y="26.47" width="240" height="37.06" as="geometry"/>
                </mxCell>
                <mxCell id="oKS3YCreeN8FTTp43qVJ-3" value="" style="shape=ellipse;container=1;horizontal=1;horizontalStack=0;resizeParent=1;resizeParentMax=0;resizeLast=0;html=1;dashed=0;collapsible=0;" parent="SAJOazQFFOp8O49HAVbE-3" vertex="1">
                    <mxGeometry x="450" y="20" width="260" height="90" as="geometry"/>
                </mxCell>
                <mxCell id="oKS3YCreeN8FTTp43qVJ-4" value="Criar Pergunta" style="html=1;strokeColor=none;fillColor=none;align=center;verticalAlign=middle;rotatable=0;whiteSpace=wrap;" parent="oKS3YCreeN8FTTp43qVJ-3" vertex="1">
                    <mxGeometry y="26.466470588235296" width="260" height="37.05882352941176" as="geometry"/>
                </mxCell>
                <mxCell id="oKS3YCreeN8FTTp43qVJ-5" value="" style="shape=ellipse;container=1;horizontal=1;horizontalStack=0;resizeParent=1;resizeParentMax=0;resizeLast=0;html=1;dashed=0;collapsible=0;" parent="SAJOazQFFOp8O49HAVbE-3" vertex="1">
                    <mxGeometry x="450" y="140" width="260" height="90" as="geometry"/>
                </mxCell>
                <mxCell id="oKS3YCreeN8FTTp43qVJ-6" value="Recuperar Pergunta" style="html=1;strokeColor=none;fillColor=none;align=center;verticalAlign=middle;rotatable=0;whiteSpace=wrap;" parent="oKS3YCreeN8FTTp43qVJ-5" vertex="1">
                    <mxGeometry y="26.466470588235296" width="260" height="37.05882352941176" as="geometry"/>
                </mxCell>
                <mxCell id="oKS3YCreeN8FTTp43qVJ-7" value="" style="shape=ellipse;container=1;horizontal=1;horizontalStack=0;resizeParent=1;resizeParentMax=0;resizeLast=0;html=1;dashed=0;collapsible=0;" parent="SAJOazQFFOp8O49HAVbE-3" vertex="1">
                    <mxGeometry x="450" y="250" width="260" height="90" as="geometry"/>
                </mxCell>
                <mxCell id="oKS3YCreeN8FTTp43qVJ-8" value="Atualizar Pergunta" style="html=1;strokeColor=none;fillColor=none;align=center;verticalAlign=middle;rotatable=0;whiteSpace=wrap;" parent="oKS3YCreeN8FTTp43qVJ-7" vertex="1">
                    <mxGeometry y="26.466470588235296" width="260" height="37.05882352941176" as="geometry"/>
                </mxCell>
                <mxCell id="oKS3YCreeN8FTTp43qVJ-9" value="" style="shape=ellipse;container=1;horizontal=1;horizontalStack=0;resizeParent=1;resizeParentMax=0;resizeLast=0;html=1;dashed=0;collapsible=0;" parent="SAJOazQFFOp8O49HAVbE-3" vertex="1">
                    <mxGeometry x="420" y="360" width="260" height="90" as="geometry"/>
                </mxCell>
                <mxCell id="oKS3YCreeN8FTTp43qVJ-10" value="Deletar Pergunta" style="html=1;strokeColor=none;fillColor=none;align=center;verticalAlign=middle;rotatable=0;whiteSpace=wrap;" parent="oKS3YCreeN8FTTp43qVJ-9" vertex="1">
                    <mxGeometry y="26.466470588235296" width="260" height="37.05882352941176" as="geometry"/>
                </mxCell>
                <mxCell id="oKS3YCreeN8FTTp43qVJ-11" value="&amp;lt;&amp;lt;extend&amp;gt;&amp;gt;" style="html=1;verticalAlign=bottom;labelBackgroundColor=none;endArrow=open;endFill=0;dashed=1;exitX=0;exitY=0.75;exitDx=0;exitDy=0;entryX=0.723;entryY=0.067;entryDx=0;entryDy=0;entryPerimeter=0;" parent="SAJOazQFFOp8O49HAVbE-3" source="oKS3YCreeN8FTTp43qVJ-4" target="oKS3YCreeN8FTTp43qVJ-1" edge="1">
                    <mxGeometry width="160" relative="1" as="geometry">
                        <mxPoint x="210" y="200" as="sourcePoint"/>
                        <mxPoint x="370" y="200" as="targetPoint"/>
                    </mxGeometry>
                </mxCell>
                <mxCell id="oKS3YCreeN8FTTp43qVJ-12" value="&amp;lt;&amp;lt;extend&amp;gt;&amp;gt;" style="html=1;verticalAlign=bottom;labelBackgroundColor=none;endArrow=open;endFill=0;dashed=1;exitX=0;exitY=0.5;exitDx=0;exitDy=0;entryX=0.854;entryY=0.167;entryDx=0;entryDy=0;entryPerimeter=0;" parent="SAJOazQFFOp8O49HAVbE-3" source="oKS3YCreeN8FTTp43qVJ-5" target="oKS3YCreeN8FTTp43qVJ-1" edge="1">
                    <mxGeometry width="160" relative="1" as="geometry">
                        <mxPoint x="400" y="84" as="sourcePoint"/>
                        <mxPoint x="298" y="206" as="targetPoint"/>
                    </mxGeometry>
                </mxCell>
                <mxCell id="oKS3YCreeN8FTTp43qVJ-13" value="&amp;lt;&amp;lt;extend&amp;gt;&amp;gt;" style="html=1;verticalAlign=bottom;labelBackgroundColor=none;endArrow=open;endFill=0;dashed=1;exitX=0;exitY=0.5;exitDx=0;exitDy=0;entryX=0.969;entryY=0.733;entryDx=0;entryDy=0;entryPerimeter=0;" parent="SAJOazQFFOp8O49HAVbE-3" source="oKS3YCreeN8FTTp43qVJ-8" target="oKS3YCreeN8FTTp43qVJ-1" edge="1">
                    <mxGeometry width="160" relative="1" as="geometry">
                        <mxPoint x="410" y="94" as="sourcePoint"/>
                        <mxPoint x="308" y="216" as="targetPoint"/>
                    </mxGeometry>
                </mxCell>
                <mxCell id="oKS3YCreeN8FTTp43qVJ-14" value="&amp;lt;&amp;lt;extend&amp;gt;&amp;gt;" style="html=1;verticalAlign=bottom;labelBackgroundColor=none;endArrow=open;endFill=0;dashed=1;exitX=0;exitY=0.5;exitDx=0;exitDy=0;entryX=0.85;entryY=0.9;entryDx=0;entryDy=0;entryPerimeter=0;" parent="SAJOazQFFOp8O49HAVbE-3" source="oKS3YCreeN8FTTp43qVJ-10" target="oKS3YCreeN8FTTp43qVJ-1" edge="1">
                    <mxGeometry width="160" relative="1" as="geometry">
                        <mxPoint x="420" y="104" as="sourcePoint"/>
                        <mxPoint x="318" y="226" as="targetPoint"/>
                    </mxGeometry>
                </mxCell>
                <mxCell id="oKS3YCreeN8FTTp43qVJ-15" value="" style="shape=ellipse;container=1;horizontal=1;horizontalStack=0;resizeParent=1;resizeParentMax=0;resizeLast=0;html=1;dashed=0;collapsible=0;" parent="SAJOazQFFOp8O49HAVbE-3" vertex="1">
                    <mxGeometry x="320" y="835" width="260" height="90" as="geometry"/>
                </mxCell>
                <mxCell id="oKS3YCreeN8FTTp43qVJ-16" value="Envio de Formulario" style="html=1;strokeColor=none;fillColor=none;align=center;verticalAlign=middle;rotatable=0;whiteSpace=wrap;" parent="oKS3YCreeN8FTTp43qVJ-15" vertex="1">
                    <mxGeometry x="10" y="26.47" width="240" height="37.06" as="geometry"/>
                </mxCell>
                <mxCell id="oKS3YCreeN8FTTp43qVJ-30" value="&amp;lt;&amp;lt;include&amp;gt;&amp;gt;" style="html=1;verticalAlign=bottom;labelBackgroundColor=none;endArrow=open;endFill=0;dashed=1;exitX=0.5;exitY=0;exitDx=0;exitDy=0;entryX=0.5;entryY=1;entryDx=0;entryDy=0;" parent="SAJOazQFFOp8O49HAVbE-3" source="oKS3YCreeN8FTTp43qVJ-15" target="SAJOazQFFOp8O49HAVbE-4" edge="1">
                    <mxGeometry width="160" relative="1" as="geometry">
                        <mxPoint x="450" y="877.5" as="sourcePoint"/>
                        <mxPoint x="500" y="757.5" as="targetPoint"/>
                    </mxGeometry>
                </mxCell>
                <mxCell id="SAJOazQFFOp8O49HAVbE-18" style="edgeStyle=none;html=1;entryX=0.5;entryY=0.5;entryDx=0;entryDy=0;entryPerimeter=0;exitX=0;exitY=0.5;exitDx=0;exitDy=0;endArrow=none;endFill=0;" parent="1" source="SAJOazQFFOp8O49HAVbE-4" target="SAJOazQFFOp8O49HAVbE-1" edge="1">
                    <mxGeometry relative="1" as="geometry">
                        <mxPoint x="275" y="835.47" as="sourcePoint"/>
                        <mxPoint x="150" y="264" as="targetPoint"/>
                    </mxGeometry>
                </mxCell>
                <mxCell id="SAJOazQFFOp8O49HAVbE-19" style="edgeStyle=none;html=1;entryX=0.5;entryY=0.5;entryDx=0;entryDy=0;entryPerimeter=0;exitX=0;exitY=0.5;exitDx=0;exitDy=0;endArrow=none;endFill=0;" parent="1" source="SAJOazQFFOp8O49HAVbE-4" target="SAJOazQFFOp8O49HAVbE-2" edge="1">
                    <mxGeometry relative="1" as="geometry">
                        <mxPoint x="240" y="385" as="sourcePoint"/>
                        <mxPoint x="155" y="270" as="targetPoint"/>
                    </mxGeometry>
                </mxCell>
                <mxCell id="oKS3YCreeN8FTTp43qVJ-31" style="edgeStyle=none;html=1;entryX=0.5;entryY=0.5;entryDx=0;entryDy=0;entryPerimeter=0;exitX=0;exitY=0.5;exitDx=0;exitDy=0;endArrow=none;endFill=0;" parent="1" source="oKS3YCreeN8FTTp43qVJ-1" target="SAJOazQFFOp8O49HAVbE-1" edge="1">
                    <mxGeometry relative="1" as="geometry">
                        <mxPoint x="520" y="758" as="sourcePoint"/>
                        <mxPoint x="105" y="530" as="targetPoint"/>
                    </mxGeometry>
                </mxCell>
                <mxCell id="oKS3YCreeN8FTTp43qVJ-34" style="edgeStyle=none;html=1;entryX=0.5;entryY=0.5;entryDx=0;entryDy=0;entryPerimeter=0;exitX=0;exitY=0.5;exitDx=0;exitDy=0;endArrow=none;endFill=0;" parent="1" source="oKS3YCreeN8FTTp43qVJ-1" target="SAJOazQFFOp8O49HAVbE-2" edge="1">
                    <mxGeometry relative="1" as="geometry">
                        <mxPoint x="520" y="758" as="sourcePoint"/>
                        <mxPoint x="95" y="758" as="targetPoint"/>
                    </mxGeometry>
                </mxCell>
            </root>
        </mxGraphModel>
    </diagram>
    <diagram id="XUMTAKN_iKrBrf9FzzQi" name="Subdomínio-Observação">
        <mxGraphModel dx="1456" dy="624" grid="1" gridSize="10" guides="1" tooltips="1" connect="1" arrows="1" fold="1" page="1" pageScale="1" pageWidth="850" pageHeight="1100" math="0" shadow="0">
            <root>
                <mxCell id="0"/>
                <mxCell id="1" parent="0"/>
                <mxCell id="8mQkxscWGGhkVk-J_2X7-1" value="&lt;div&gt;Funcionários&lt;/div&gt;" style="shape=umlActor;verticalLabelPosition=bottom;verticalAlign=top;html=1;" parent="1" vertex="1">
                    <mxGeometry x="50" y="200" width="50" height="74" as="geometry"/>
                </mxCell>
                <mxCell id="8mQkxscWGGhkVk-J_2X7-2" value="Administrador&lt;div&gt;&lt;br&gt;&lt;/div&gt;" style="shape=umlActor;verticalLabelPosition=bottom;verticalAlign=top;html=1;" parent="1" vertex="1">
                    <mxGeometry x="50" y="440" width="50" height="80" as="geometry"/>
                </mxCell>
                <mxCell id="8mQkxscWGGhkVk-J_2X7-3" value="Subdomínio Observação" style="shape=umlFrame;whiteSpace=wrap;html=1;pointerEvents=0;recursiveResize=0;container=1;collapsible=0;width=190;height=30;" parent="1" vertex="1">
                    <mxGeometry x="210" y="90" width="740" height="630" as="geometry"/>
                </mxCell>
                <mxCell id="8mQkxscWGGhkVk-J_2X7-35" value="" style="shape=ellipse;container=1;horizontal=1;horizontalStack=0;resizeParent=1;resizeParentMax=0;resizeLast=0;html=1;dashed=0;collapsible=0;" parent="8mQkxscWGGhkVk-J_2X7-3" vertex="1">
                    <mxGeometry x="50" y="280" width="260" height="90" as="geometry"/>
                </mxCell>
                <mxCell id="8mQkxscWGGhkVk-J_2X7-36" value="Registro de Observaçõoes" style="html=1;strokeColor=none;fillColor=none;align=center;verticalAlign=middle;rotatable=0;whiteSpace=wrap;" parent="8mQkxscWGGhkVk-J_2X7-35" vertex="1">
                    <mxGeometry x="25" y="26.47" width="220" height="37.06" as="geometry"/>
                </mxCell>
                <mxCell id="8mQkxscWGGhkVk-J_2X7-37" value="" style="shape=ellipse;container=1;horizontal=1;horizontalStack=0;resizeParent=1;resizeParentMax=0;resizeLast=0;html=1;dashed=0;collapsible=0;" parent="8mQkxscWGGhkVk-J_2X7-3" vertex="1">
                    <mxGeometry x="420" y="110" width="260" height="90" as="geometry"/>
                </mxCell>
                <mxCell id="8mQkxscWGGhkVk-J_2X7-38" value="Criar Observações" style="html=1;strokeColor=none;fillColor=none;align=center;verticalAlign=middle;rotatable=0;whiteSpace=wrap;" parent="8mQkxscWGGhkVk-J_2X7-37" vertex="1">
                    <mxGeometry y="26.466470588235296" width="260" height="37.05882352941176" as="geometry"/>
                </mxCell>
                <mxCell id="8mQkxscWGGhkVk-J_2X7-39" value="" style="shape=ellipse;container=1;horizontal=1;horizontalStack=0;resizeParent=1;resizeParentMax=0;resizeLast=0;html=1;dashed=0;collapsible=0;" parent="8mQkxscWGGhkVk-J_2X7-3" vertex="1">
                    <mxGeometry x="410" y="220" width="260" height="90" as="geometry"/>
                </mxCell>
                <mxCell id="8mQkxscWGGhkVk-J_2X7-40" value="Recuperar Observações" style="html=1;strokeColor=none;fillColor=none;align=center;verticalAlign=middle;rotatable=0;whiteSpace=wrap;" parent="8mQkxscWGGhkVk-J_2X7-39" vertex="1">
                    <mxGeometry y="26.466470588235296" width="260" height="37.05882352941176" as="geometry"/>
                </mxCell>
                <mxCell id="8mQkxscWGGhkVk-J_2X7-41" value="" style="shape=ellipse;container=1;horizontal=1;horizontalStack=0;resizeParent=1;resizeParentMax=0;resizeLast=0;html=1;dashed=0;collapsible=0;" parent="8mQkxscWGGhkVk-J_2X7-3" vertex="1">
                    <mxGeometry x="410" y="320" width="260" height="90" as="geometry"/>
                </mxCell>
                <mxCell id="8mQkxscWGGhkVk-J_2X7-42" value="Atualizar Observações" style="html=1;strokeColor=none;fillColor=none;align=center;verticalAlign=middle;rotatable=0;whiteSpace=wrap;" parent="8mQkxscWGGhkVk-J_2X7-41" vertex="1">
                    <mxGeometry y="26.466470588235296" width="260" height="37.05882352941176" as="geometry"/>
                </mxCell>
                <mxCell id="8mQkxscWGGhkVk-J_2X7-43" value="" style="shape=ellipse;container=1;horizontal=1;horizontalStack=0;resizeParent=1;resizeParentMax=0;resizeLast=0;html=1;dashed=0;collapsible=0;" parent="8mQkxscWGGhkVk-J_2X7-3" vertex="1">
                    <mxGeometry x="410" y="430" width="260" height="90" as="geometry"/>
                </mxCell>
                <mxCell id="8mQkxscWGGhkVk-J_2X7-44" value="Deletar Observações" style="html=1;strokeColor=none;fillColor=none;align=center;verticalAlign=middle;rotatable=0;whiteSpace=wrap;" parent="8mQkxscWGGhkVk-J_2X7-43" vertex="1">
                    <mxGeometry y="26.466470588235296" width="260" height="37.05882352941176" as="geometry"/>
                </mxCell>
                <mxCell id="8mQkxscWGGhkVk-J_2X7-45" value="&amp;lt;&amp;lt;extend&amp;gt;&amp;gt;" style="html=1;verticalAlign=bottom;labelBackgroundColor=none;endArrow=open;endFill=0;dashed=1;exitX=0;exitY=0.75;exitDx=0;exitDy=0;entryX=0.792;entryY=0.058;entryDx=0;entryDy=0;entryPerimeter=0;" parent="8mQkxscWGGhkVk-J_2X7-3" source="8mQkxscWGGhkVk-J_2X7-38" target="8mQkxscWGGhkVk-J_2X7-35" edge="1">
                    <mxGeometry width="160" relative="1" as="geometry">
                        <mxPoint x="80" y="130" as="sourcePoint"/>
                        <mxPoint x="256" y="367" as="targetPoint"/>
                    </mxGeometry>
                </mxCell>
                <mxCell id="8mQkxscWGGhkVk-J_2X7-46" value="&amp;lt;&amp;lt;extend&amp;gt;&amp;gt;" style="html=1;verticalAlign=bottom;labelBackgroundColor=none;endArrow=open;endFill=0;dashed=1;exitX=0;exitY=0.5;exitDx=0;exitDy=0;entryX=0.95;entryY=0.291;entryDx=0;entryDy=0;entryPerimeter=0;" parent="8mQkxscWGGhkVk-J_2X7-3" source="8mQkxscWGGhkVk-J_2X7-39" target="8mQkxscWGGhkVk-J_2X7-35" edge="1">
                    <mxGeometry x="0.0041" width="160" relative="1" as="geometry">
                        <mxPoint x="270" y="14" as="sourcePoint"/>
                        <mxPoint x="286" y="376" as="targetPoint"/>
                        <mxPoint as="offset"/>
                    </mxGeometry>
                </mxCell>
                <mxCell id="8mQkxscWGGhkVk-J_2X7-47" value="&amp;lt;&amp;lt;extend&amp;gt;&amp;gt;" style="html=1;verticalAlign=bottom;labelBackgroundColor=none;endArrow=open;endFill=0;dashed=1;exitX=0;exitY=0.5;exitDx=0;exitDy=0;entryX=1;entryY=0.5;entryDx=0;entryDy=0;" parent="8mQkxscWGGhkVk-J_2X7-3" source="8mQkxscWGGhkVk-J_2X7-42" target="8mQkxscWGGhkVk-J_2X7-35" edge="1">
                    <mxGeometry width="160" relative="1" as="geometry">
                        <mxPoint x="280" y="24" as="sourcePoint"/>
                        <mxPoint x="310" y="399" as="targetPoint"/>
                    </mxGeometry>
                </mxCell>
                <mxCell id="8mQkxscWGGhkVk-J_2X7-48" value="&amp;lt;&amp;lt;extend&amp;gt;&amp;gt;" style="html=1;verticalAlign=bottom;labelBackgroundColor=none;endArrow=open;endFill=0;dashed=1;exitX=0;exitY=0.5;exitDx=0;exitDy=0;entryX=0.847;entryY=0.873;entryDx=0;entryDy=0;entryPerimeter=0;" parent="8mQkxscWGGhkVk-J_2X7-3" source="8mQkxscWGGhkVk-J_2X7-44" target="8mQkxscWGGhkVk-J_2X7-35" edge="1">
                    <mxGeometry width="160" relative="1" as="geometry">
                        <mxPoint x="290" y="34" as="sourcePoint"/>
                        <mxPoint x="290" y="423" as="targetPoint"/>
                    </mxGeometry>
                </mxCell>
                <mxCell id="8mQkxscWGGhkVk-J_2X7-50" style="edgeStyle=none;html=1;entryX=0.5;entryY=0.5;entryDx=0;entryDy=0;entryPerimeter=0;exitX=0;exitY=0.5;exitDx=0;exitDy=0;endArrow=none;endFill=0;" parent="1" source="8mQkxscWGGhkVk-J_2X7-35" target="8mQkxscWGGhkVk-J_2X7-2" edge="1">
                    <mxGeometry relative="1" as="geometry">
                        <mxPoint x="290" y="409" as="sourcePoint"/>
                        <mxPoint x="125" y="890" as="targetPoint"/>
                    </mxGeometry>
                </mxCell>
            </root>
        </mxGraphModel>
    </diagram>
    <diagram id="u0Pys8OKiqK_ye9eLoKc" name="Subdomínio-Usuário">
        <mxGraphModel dx="1456" dy="624" grid="1" gridSize="10" guides="1" tooltips="1" connect="1" arrows="1" fold="1" page="1" pageScale="1" pageWidth="850" pageHeight="1100" math="0" shadow="0">
            <root>
                <mxCell id="0"/>
                <mxCell id="1" parent="0"/>
                <mxCell id="mt39KHYXqrVaScsMsR8M-2" value="Administrador&lt;div&gt;&lt;br&gt;&lt;/div&gt;" style="shape=umlActor;verticalLabelPosition=bottom;verticalAlign=top;html=1;" vertex="1" parent="1">
                    <mxGeometry x="90" y="345" width="30" height="60" as="geometry"/>
                </mxCell>
                <mxCell id="mt39KHYXqrVaScsMsR8M-3" value="Subdomínio Usuario" style="shape=umlFrame;whiteSpace=wrap;html=1;pointerEvents=0;recursiveResize=0;container=1;collapsible=0;width=190;height=30;" vertex="1" parent="1">
                    <mxGeometry x="210" y="90" width="730" height="560" as="geometry"/>
                </mxCell>
                <mxCell id="mt39KHYXqrVaScsMsR8M-4" value="" style="shape=ellipse;container=1;horizontal=1;horizontalStack=0;resizeParent=1;resizeParentMax=0;resizeLast=0;html=1;dashed=0;collapsible=0;" vertex="1" parent="mt39KHYXqrVaScsMsR8M-3">
                    <mxGeometry x="20" y="240" width="260" height="90" as="geometry"/>
                </mxCell>
                <mxCell id="mt39KHYXqrVaScsMsR8M-5" value="Registro de Funcionário" style="html=1;strokeColor=none;fillColor=none;align=center;verticalAlign=middle;rotatable=0;whiteSpace=wrap;" vertex="1" parent="mt39KHYXqrVaScsMsR8M-4">
                    <mxGeometry x="20" y="26.47" width="240" height="37.06" as="geometry"/>
                </mxCell>
                <mxCell id="mt39KHYXqrVaScsMsR8M-6" value="" style="shape=ellipse;container=1;horizontal=1;horizontalStack=0;resizeParent=1;resizeParentMax=0;resizeLast=0;html=1;dashed=0;collapsible=0;" vertex="1" parent="mt39KHYXqrVaScsMsR8M-3">
                    <mxGeometry x="380" y="80" width="260" height="90" as="geometry"/>
                </mxCell>
                <mxCell id="mt39KHYXqrVaScsMsR8M-7" value="Criar Funcionario" style="html=1;strokeColor=none;fillColor=none;align=center;verticalAlign=middle;rotatable=0;whiteSpace=wrap;" vertex="1" parent="mt39KHYXqrVaScsMsR8M-6">
                    <mxGeometry y="26.466470588235296" width="260" height="37.05882352941176" as="geometry"/>
                </mxCell>
                <mxCell id="mt39KHYXqrVaScsMsR8M-8" value="" style="shape=ellipse;container=1;horizontal=1;horizontalStack=0;resizeParent=1;resizeParentMax=0;resizeLast=0;html=1;dashed=0;collapsible=0;" vertex="1" parent="mt39KHYXqrVaScsMsR8M-3">
                    <mxGeometry x="380" y="190" width="260" height="90" as="geometry"/>
                </mxCell>
                <mxCell id="mt39KHYXqrVaScsMsR8M-9" value="Recuperar Funcionario" style="html=1;strokeColor=none;fillColor=none;align=center;verticalAlign=middle;rotatable=0;whiteSpace=wrap;" vertex="1" parent="mt39KHYXqrVaScsMsR8M-8">
                    <mxGeometry y="26.466470588235296" width="260" height="37.05882352941176" as="geometry"/>
                </mxCell>
                <mxCell id="mt39KHYXqrVaScsMsR8M-10" value="" style="shape=ellipse;container=1;horizontal=1;horizontalStack=0;resizeParent=1;resizeParentMax=0;resizeLast=0;html=1;dashed=0;collapsible=0;" vertex="1" parent="mt39KHYXqrVaScsMsR8M-3">
                    <mxGeometry x="370" y="300" width="260" height="90" as="geometry"/>
                </mxCell>
                <mxCell id="mt39KHYXqrVaScsMsR8M-11" value="Atualizar Funcionario" style="html=1;strokeColor=none;fillColor=none;align=center;verticalAlign=middle;rotatable=0;whiteSpace=wrap;" vertex="1" parent="mt39KHYXqrVaScsMsR8M-10">
                    <mxGeometry y="26.466470588235296" width="260" height="37.05882352941176" as="geometry"/>
                </mxCell>
                <mxCell id="mt39KHYXqrVaScsMsR8M-12" value="" style="shape=ellipse;container=1;horizontal=1;horizontalStack=0;resizeParent=1;resizeParentMax=0;resizeLast=0;html=1;dashed=0;collapsible=0;" vertex="1" parent="mt39KHYXqrVaScsMsR8M-3">
                    <mxGeometry x="370" y="415" width="260" height="90" as="geometry"/>
                </mxCell>
                <mxCell id="mt39KHYXqrVaScsMsR8M-13" value="Deletar Funcionario" style="html=1;strokeColor=none;fillColor=none;align=center;verticalAlign=middle;rotatable=0;whiteSpace=wrap;" vertex="1" parent="mt39KHYXqrVaScsMsR8M-12">
                    <mxGeometry y="26.466470588235296" width="260" height="37.05882352941176" as="geometry"/>
                </mxCell>
                <mxCell id="mt39KHYXqrVaScsMsR8M-14" value="&amp;lt;&amp;lt;extend&amp;gt;&amp;gt;" style="html=1;verticalAlign=bottom;labelBackgroundColor=none;endArrow=open;endFill=0;dashed=1;exitX=0;exitY=0.75;exitDx=0;exitDy=0;entryX=0.723;entryY=0.067;entryDx=0;entryDy=0;entryPerimeter=0;" edge="1" parent="mt39KHYXqrVaScsMsR8M-3" source="mt39KHYXqrVaScsMsR8M-7" target="mt39KHYXqrVaScsMsR8M-4">
                    <mxGeometry width="160" relative="1" as="geometry">
                        <mxPoint x="130" y="250" as="sourcePoint"/>
                        <mxPoint x="290" y="250" as="targetPoint"/>
                    </mxGeometry>
                </mxCell>
                <mxCell id="mt39KHYXqrVaScsMsR8M-15" value="&amp;lt;&amp;lt;extend&amp;gt;&amp;gt;" style="html=1;verticalAlign=bottom;labelBackgroundColor=none;endArrow=open;endFill=0;dashed=1;exitX=0;exitY=0.5;exitDx=0;exitDy=0;entryX=0.854;entryY=0.167;entryDx=0;entryDy=0;entryPerimeter=0;" edge="1" parent="mt39KHYXqrVaScsMsR8M-3" source="mt39KHYXqrVaScsMsR8M-8" target="mt39KHYXqrVaScsMsR8M-4">
                    <mxGeometry width="160" relative="1" as="geometry">
                        <mxPoint x="320" y="134" as="sourcePoint"/>
                        <mxPoint x="218" y="256" as="targetPoint"/>
                    </mxGeometry>
                </mxCell>
                <mxCell id="mt39KHYXqrVaScsMsR8M-16" value="&amp;lt;&amp;lt;extend&amp;gt;&amp;gt;" style="html=1;verticalAlign=bottom;labelBackgroundColor=none;endArrow=open;endFill=0;dashed=1;exitX=0;exitY=0.5;exitDx=0;exitDy=0;entryX=0.969;entryY=0.733;entryDx=0;entryDy=0;entryPerimeter=0;" edge="1" parent="mt39KHYXqrVaScsMsR8M-3" source="mt39KHYXqrVaScsMsR8M-11" target="mt39KHYXqrVaScsMsR8M-4">
                    <mxGeometry width="160" relative="1" as="geometry">
                        <mxPoint x="330" y="144" as="sourcePoint"/>
                        <mxPoint x="228" y="266" as="targetPoint"/>
                    </mxGeometry>
                </mxCell>
                <mxCell id="mt39KHYXqrVaScsMsR8M-17" value="&amp;lt;&amp;lt;extend&amp;gt;&amp;gt;" style="html=1;verticalAlign=bottom;labelBackgroundColor=none;endArrow=open;endFill=0;dashed=1;exitX=0;exitY=0.5;exitDx=0;exitDy=0;entryX=0.85;entryY=0.9;entryDx=0;entryDy=0;entryPerimeter=0;" edge="1" parent="mt39KHYXqrVaScsMsR8M-3" source="mt39KHYXqrVaScsMsR8M-13" target="mt39KHYXqrVaScsMsR8M-4">
                    <mxGeometry width="160" relative="1" as="geometry">
                        <mxPoint x="340" y="154" as="sourcePoint"/>
                        <mxPoint x="238" y="276" as="targetPoint"/>
                    </mxGeometry>
                </mxCell>
                <mxCell id="mt39KHYXqrVaScsMsR8M-19" style="edgeStyle=none;html=1;entryX=0.5;entryY=0.5;entryDx=0;entryDy=0;entryPerimeter=0;exitX=0;exitY=0.5;exitDx=0;exitDy=0;endArrow=none;endFill=0;" edge="1" parent="1" source="mt39KHYXqrVaScsMsR8M-4" target="mt39KHYXqrVaScsMsR8M-2">
                    <mxGeometry relative="1" as="geometry">
                        <mxPoint x="240" y="385" as="sourcePoint"/>
                        <mxPoint x="155" y="270" as="targetPoint"/>
                    </mxGeometry>
                </mxCell>
            </root>
        </mxGraphModel>
    </diagram>
</mxfile>